<svg version="1.1" id="Layer_1" xmlns="http://www.w3.org/2000/svg" xmlns:xlink="http://www.w3.org/1999/xlink" x="0px" y="0px"
	 width="100%" viewBox="0 0 480 352" enable-background="new 0 0 480 352" xml:space="preserve">
<path fill="#f59e0b" opacity="1.000000" stroke="none" 
	d="
M275.329224,244.479889 
	C273.227875,246.317139 271.056274,246.286591 268.873962,246.285568 
	C251.056931,246.277283 233.239899,246.298828 215.422897,246.275421 
	C208.611099,246.266479 206.588089,244.453949 205.677139,237.686249 
	C201.627243,207.598206 197.594406,177.507843 193.538254,147.420639 
	C191.433563,131.808838 189.350861,116.193565 187.119781,100.599670 
	C186.679474,97.522232 187.593826,95.357903 190.155487,93.876831 
	C205.718323,84.878883 221.304123,75.920662 236.880066,66.945343 
	C239.559570,65.401344 242.242355,65.345161 244.949097,66.864319 
	C260.912201,75.823593 276.883240,84.768723 292.832855,93.751968 
	C295.658875,95.343666 296.361786,97.892128 295.940033,101.001511 
	C292.081207,129.450806 288.206787,157.898224 284.459167,186.362274 
	C282.271027,202.981766 280.352264,219.636627 278.193512,236.260147 
	C277.837128,239.004654 277.703857,241.943619 275.329224,244.479889 
M237.595566,141.125488 
	C227.796646,149.198166 217.732544,156.967255 208.148087,166.045517 
	C230.574371,185.767181 252.137329,205.452347 270.797821,227.949020 
	C272.392761,226.843628 272.474152,225.659790 272.622681,224.528687 
	C274.888824,207.271164 277.113800,190.008118 279.440521,172.758789 
	C279.749298,170.469467 278.941742,169.032059 277.261566,167.623337 
	C266.558105,158.649124 255.861801,149.664566 245.289062,140.537506 
	C242.635956,138.247177 240.467758,137.914291 237.595566,141.125488 
M197.495621,106.500496 
	C192.730179,106.392487 195.415863,109.981972 195.563828,111.372749 
	C196.596146,121.075478 197.857498,130.766098 199.459610,140.391663 
	C200.530289,146.824371 200.236496,153.526230 202.966187,160.458344 
	C214.396500,150.999542 225.417587,141.879364 236.964340,132.324203 
	C223.958771,122.869423 211.020203,114.834290 197.495621,106.500496 
M285.669067,125.400337 
	C286.482819,119.009048 287.296570,112.617760 288.222931,105.341820 
	C274.194702,114.442329 261.098450,123.359764 247.945877,133.526901 
	C258.987579,142.841599 269.413330,151.636703 280.898102,161.325165 
	C282.613556,148.570038 284.111877,137.429459 285.669067,125.400337 
M214.487854,229.839020 
	C221.470673,222.036835 228.392563,214.178741 235.471344,206.464615 
	C237.761429,203.968948 237.835052,202.211975 235.138062,199.926361 
	C230.576813,196.060867 226.320023,191.838226 221.884018,187.822296 
	C216.387466,182.846222 210.838730,177.927795 205.343811,173.012421 
	C203.852264,174.379089 204.242401,175.642517 204.378403,176.685074 
	C206.670486,194.255096 209.030930,211.816208 211.385742,229.378021 
	C211.649277,231.343430 212.568924,231.605347 214.487854,229.839020 
M220.955887,233.394501 
	C219.805023,235.259064 217.663849,236.475677 217.052277,238.511139 
	C234.545120,238.511139 251.728714,238.511139 270.088135,238.511139 
	C261.143341,227.634476 252.761200,217.889420 243.316071,208.314331 
	C235.770325,216.754929 228.577988,224.800201 220.955887,233.394501 
M247.256760,118.714470 
	C245.902985,121.133926 244.549194,123.553375 242.484756,127.242905 
	C236.405838,114.770523 233.743027,100.669525 218.303482,97.645477 
	C216.043411,104.935333 217.939331,110.859055 223.498978,114.572746 
	C228.892319,118.175385 234.396332,121.638390 239.559891,125.548180 
	C242.220352,127.562645 244.169998,127.363777 246.624176,125.537331 
	C252.362595,121.266663 257.853119,116.487350 264.092285,113.112473 
	C270.895203,109.432671 271.285950,104.084595 270.660431,97.398125 
	C269.580078,97.655342 268.795929,97.806892 268.032349,98.029129 
	C257.642548,101.053154 252.492874,109.428253 247.256760,118.714470 
M257.569489,82.016655 
	C253.235260,79.546318 248.842255,77.172005 244.589523,74.568558 
	C242.154053,73.077606 240.071777,73.161697 237.646103,74.611336 
	C231.081375,78.534554 224.424103,82.304207 217.769714,86.075089 
	C216.382812,86.861015 214.899628,87.443069 214.207977,88.790192 
	C221.247925,92.522881 227.302017,92.328880 232.792969,86.276566 
	C236.034775,82.703339 240.211670,82.945457 244.134140,85.593605 
	C247.575912,87.917252 250.948090,90.344719 254.331741,92.753365 
	C255.665848,93.703041 256.845276,95.183929 258.735413,94.421974 
	C262.455750,92.922241 266.129822,91.307762 270.076294,89.633301 
	C269.328674,88.936005 269.021881,88.524963 268.613831,88.288940 
	C265.160339,86.291199 261.688324,84.325394 257.569489,82.016655 
M247.702728,96.643875 
	C246.375351,95.651047 245.072388,94.623436 243.716324,93.671463 
	C238.157211,89.768898 237.028366,90.035217 232.838989,96.328545 
	C237.273056,100.299637 240.397217,105.343742 243.500046,110.777626 
	C245.540100,107.935898 247.155197,105.204422 249.244156,102.903076 
	C251.637527,100.266365 250.860596,98.602570 247.702728,96.643875 
M198.862015,97.709305 
	C201.272018,102.086105 206.008972,102.923096 210.240250,106.057518 
	C210.854141,100.350296 210.985031,95.738281 209.679489,90.604393 
	C205.911697,92.978859 202.562042,95.089821 198.862015,97.709305 
M279.742859,102.532478 
	C281.806091,101.334160 284.011902,100.299576 285.401489,98.094902 
	C283.355713,96.369247 281.561127,95.040421 278.424072,94.832451 
	C278.834015,97.562943 277.142914,100.122818 279.742859,102.532478 
z"/>
<path fill="#f1f5f9" opacity="1.000000" stroke="none" 
	d="
M167.478867,290.100830 
	C163.345779,290.540802 159.728073,290.334381 156.509872,288.175049 
	C154.673889,286.943146 153.176407,285.364502 152.721588,283.118134 
	C152.442703,281.740753 151.572113,280.006561 153.497818,279.181915 
	C155.476624,278.334534 156.365417,279.656189 157.276459,281.299622 
	C159.669754,285.616882 164.418243,287.055847 168.688217,284.984650 
	C170.256683,284.223816 171.523636,283.204559 171.568802,281.273499 
	C171.615112,279.293793 170.348068,278.176300 168.714142,277.612152 
	C166.366867,276.801636 163.938126,276.221558 161.533218,275.584412 
	C155.303268,273.933807 152.692810,271.255157 153.111420,266.899841 
	C153.610306,261.709167 157.521255,258.303314 163.396255,257.943268 
	C170.383194,257.515076 175.025497,261.299835 175.126556,267.600494 
	C172.930222,268.928772 171.740555,268.068695 170.432999,265.992035 
	C168.191879,262.432648 164.844864,261.481476 160.935928,263.267487 
	C159.314850,264.008148 158.310272,265.293915 158.373703,267.188141 
	C158.440994,269.198334 159.780685,270.098694 161.498550,270.548309 
	C163.263504,271.010254 165.058395,271.357483 166.839188,271.759277 
	C173.750107,273.318542 176.077393,275.372375 176.334457,280.135284 
	C176.624023,285.500458 174.687210,287.771973 167.478867,290.100830 
z"/>
<path fill="#f1f5f9" opacity="1.000000" stroke="none" 
	d="
M306.242310,284.805389 
	C306.074097,287.058502 306.321136,289.345306 303.555389,289.026276 
	C301.181580,288.752411 301.757782,286.563934 301.698212,285.026398 
	C301.575958,281.871582 301.695374,278.707886 301.597443,275.551514 
	C301.527344,273.290131 301.026703,270.936157 298.295959,270.752380 
	C295.781006,270.583130 294.473297,272.600494 293.804718,274.749542 
	C292.798828,277.983032 293.562531,281.360870 293.286652,284.659698 
	C293.147552,286.323425 294.002899,288.829285 291.286987,288.997955 
	C288.158173,289.192261 288.787872,286.477386 288.750458,284.643799 
	C288.652130,279.824493 288.701172,275.001404 288.743439,270.180267 
	C288.764984,267.720245 290.007507,267.567719 292.408295,267.010498 
	C298.156403,265.676361 303.660828,268.897095 309.411499,266.825012 
	C314.077667,265.143677 317.456512,267.704407 318.520752,272.562805 
	C319.531525,277.177185 318.983582,281.834991 318.842560,286.476562 
	C318.798828,287.915558 318.199738,289.123871 316.497864,289.123260 
	C314.805725,289.122650 314.175751,287.913910 314.123718,286.485352 
	C313.990692,282.832367 314.023376,279.173523 313.908295,275.519623 
	C313.838379,273.301392 313.619110,270.744324 310.735229,270.766388 
	C308.121796,270.786316 306.535950,272.752655 306.360138,275.366394 
	C306.159668,278.346680 306.270416,281.347870 306.242310,284.805389 
z"/>
<path fill="#f1f5f9" opacity="1.000000" stroke="none" 
	d="
M239.567200,270.548492 
	C240.054123,272.385040 240.394119,273.839233 240.789810,275.278168 
	C241.316010,277.191559 241.885590,279.093018 242.605225,281.583282 
	C243.774994,277.225067 244.773117,273.388550 245.844589,269.572632 
	C246.268723,268.062164 247.027710,266.628143 248.915314,266.971893 
	C251.203430,267.388580 250.517502,269.205109 250.146713,270.550781 
	C248.692108,275.829834 247.096680,281.069916 245.581848,286.332642 
	C245.080673,288.073822 244.322220,289.355743 242.183319,289.231445 
	C240.273422,289.120422 239.683929,287.787231 239.258240,286.324799 
	C238.293091,283.009003 237.407043,279.670166 236.073273,274.833832 
	C234.886124,279.369415 234.091370,282.477936 233.254593,285.575104 
	C232.773224,287.356781 232.334610,289.223969 229.890793,289.207001 
	C227.737534,289.192047 227.195572,287.574982 226.716064,285.951202 
	C225.211502,280.856201 223.728729,275.754761 222.254486,270.650879 
	C221.825027,269.164093 221.407333,267.564178 223.521301,267.049591 
	C225.396805,266.593048 226.219620,267.885345 226.741135,269.407257 
	C227.898514,272.784729 228.108093,276.467041 230.037582,280.035431 
	C231.721802,276.731750 232.037048,273.440216 232.856583,270.299622 
	C233.283020,268.665405 233.781769,267.049133 235.899780,266.878357 
	C238.284927,266.686127 239.111832,268.149200 239.567200,270.548492 
z"/>
<path fill="#f1f5f9" opacity="1.000000" stroke="none" 
	d="
M332.654114,270.415527 
	C330.031799,270.086426 328.490387,271.133972 327.311157,272.960175 
	C326.446930,274.298645 325.087189,274.625519 323.873138,273.760864 
	C322.448090,272.745941 323.263153,271.312164 323.884491,270.180481 
	C326.025360,266.281219 329.756989,266.320831 333.469330,266.554993 
	C336.847778,266.768066 339.533142,267.941071 340.519775,271.667664 
	C341.904877,276.899170 339.871796,282.503235 342.744629,287.700897 
	C343.643433,289.326996 340.794800,290.434784 339.312683,289.484222 
	C336.810364,287.879364 334.710297,288.718384 332.342133,289.475372 
	C327.280457,291.093292 323.044586,289.116699 321.977814,284.813232 
	C320.961517,280.713318 323.642914,277.171722 328.672119,276.069855 
	C329.799072,275.822968 330.973358,275.769257 332.130127,275.687012 
	C333.666046,275.577820 335.280457,275.488434 335.572296,273.566742 
	C335.852417,271.722382 334.578033,270.915039 332.654114,270.415527 
M335.637543,282.235138 
	C335.002075,276.997162 331.679077,280.004089 329.419922,280.346985 
	C327.703308,280.607574 326.118134,281.872711 326.989044,283.808197 
	C328.224457,286.553802 330.712219,285.951569 332.969360,285.202972 
	C334.086273,284.832581 334.936890,284.032928 335.637543,282.235138 
z"/>
<path fill="#f1f5f9" opacity="1.000000" stroke="none" 
	d="
M251.554016,282.263733 
	C252.483597,276.759216 256.569855,276.266693 260.591980,275.754700 
	C262.384949,275.526428 264.410095,275.814575 265.207581,273.631165 
	C265.703827,272.272522 264.779327,271.371429 263.686737,270.871033 
	C261.737701,269.978424 259.802887,270.050110 258.149261,271.599365 
	C257.548950,272.161774 257.119049,272.906372 256.517670,273.467346 
	C255.720154,274.211243 254.673523,274.391937 253.748932,273.875763 
	C252.466965,273.160126 252.637024,271.879913 253.132233,270.808746 
	C255.080627,266.594086 258.847107,266.142944 262.814178,266.456573 
	C266.578522,266.754242 269.627380,268.196259 270.218414,272.449829 
	C270.910797,277.432831 269.224762,282.582306 271.949677,287.515350 
	C272.936157,289.301178 270.419128,290.539551 268.794403,289.601929 
	C266.101654,288.047943 263.806671,288.881104 261.232727,289.630768 
	C255.540985,291.288391 252.251480,288.835266 251.554016,282.263733 
M263.097168,284.787354 
	C264.608063,283.666626 266.270844,282.394531 265.148499,280.326752 
	C264.284363,278.734619 262.461823,279.326721 261.065582,279.744812 
	C259.261017,280.285126 256.408844,280.110687 256.526855,282.746429 
	C256.722961,287.127289 259.878815,285.732727 263.097168,284.787354 
z"/>
<path fill="#f1f5f9" opacity="1.000000" stroke="none" 
	d="
M201.918854,260.480255 
	C204.235138,258.145111 205.720428,258.715515 206.108612,261.470734 
	C206.380798,263.402588 206.161163,265.403778 206.161163,267.635040 
	C208.246780,267.181213 209.809219,266.673828 211.405075,266.525146 
	C216.362427,266.063110 219.623428,268.449524 220.047638,273.343719 
	C220.419662,277.635895 220.178284,281.985321 220.119537,286.308289 
	C220.100845,287.684174 219.728241,289.019562 217.922958,289.044281 
	C216.092697,289.069336 215.768280,287.751068 215.729996,286.354889 
	C215.634277,282.863037 215.734528,279.362000 215.527969,275.878204 
	C215.375763,273.311523 214.805634,270.551025 211.443344,270.700745 
	C208.416992,270.835510 206.576614,272.843536 206.383881,275.900757 
	C206.174820,279.217010 206.289047,282.552460 206.181366,285.876892 
	C206.132660,287.380615 206.040802,289.051758 203.911133,289.056641 
	C201.739639,289.061584 201.708725,287.351257 201.707489,285.868561 
	C201.700485,277.551758 201.757767,269.234894 201.918854,260.480255 
z"/>
<path fill="#f1f5f9" opacity="1.000000" stroke="none" 
	d="
M185.465836,267.170227 
	C190.286636,265.994019 194.504196,265.912109 197.340469,270.383514 
	C198.264648,271.840546 199.002884,273.622162 197.186234,274.784088 
	C195.672470,275.752228 194.444656,274.785004 193.543015,273.284546 
	C192.349762,271.298767 190.680817,269.926208 188.166763,270.845673 
	C185.715942,271.742035 184.545898,273.707794 184.344391,276.218414 
	C184.224991,277.706055 184.239670,279.220856 184.368622,280.708282 
	C184.573792,283.074524 185.785034,284.833801 188.122620,285.480438 
	C190.331085,286.091400 192.052048,285.089508 193.234085,283.250244 
	C194.292892,281.602692 195.531555,279.881409 197.510452,281.490723 
	C199.118149,282.798187 197.848694,284.600494 197.033630,286.005066 
	C195.272217,289.040527 192.443512,290.326691 189.053467,290.173889 
	C185.071625,289.994476 182.094925,288.023468 180.351517,284.412170 
	C177.449951,278.401886 179.468994,271.271576 185.465836,267.170227 
z"/>
<path fill="#f1f5f9" opacity="1.000000" stroke="none" 
	d="
M286.608765,267.840759 
	C286.954956,269.445068 286.584503,270.730042 285.325989,270.971802 
	C279.918762,272.010529 280.006897,276.022797 280.050354,280.138947 
	C280.074768,282.450867 279.991425,284.770935 279.806854,287.075348 
	C279.703735,288.362885 278.875458,289.168304 277.482971,289.149628 
	C276.096405,289.131012 275.202148,288.290436 275.183472,287.029144 
	C275.095337,281.077576 275.098450,275.123413 275.194031,269.172180 
	C275.204956,268.493622 276.296661,267.202850 276.387360,267.246033 
	C279.727966,268.836182 283.194641,265.537750 286.608765,267.840759 
z"/>
</svg>